<svg width="24" height="24" viewBox="0 0 24 24" fill="none" xmlns="http://www.w3.org/2000/svg">
<path d="M8.89453 5.45925C9.02888 5.3249 9.21273 5.24005 9.42486 5.24005L18.0091 5.24005C18.4193 5.24005 18.7587 5.57946 18.7587 5.98958L18.7587 14.5739C18.7587 14.984 18.4193 15.3234 18.0091 15.3234C17.599 15.3234 17.2596 14.984 17.2596 14.5739L17.2596 6.73912L9.42486 6.73912C9.01474 6.73912 8.67533 6.39971 8.67533 5.98958C8.66825 5.78452 8.76018 5.59361 8.89453 5.45925Z" fill="#292D32"/>
<path d="M5.45811 17.4801L17.3587 5.57946C17.6486 5.28955 18.1295 5.28955 18.4194 5.57946C18.7093 5.86938 18.7093 6.35021 18.4194 6.64012L6.51877 18.5407C6.22886 18.8306 5.74802 18.8306 5.45811 18.5407C5.1682 18.2508 5.1682 17.77 5.45811 17.4801Z" fill="#292D32"/>
</svg>
