<?xml version="1.0" encoding="UTF-8"?>
<svg id="Layer_3" data-name="Layer 3" xmlns="http://www.w3.org/2000/svg" viewBox="0 0 600 600">
  <defs>
    <style>
      .cls-1 {
        fill: #252324;
      }
    </style>
  </defs>
  <g>
    <path class="cls-1" d="M68.53,292.1c26.92-10.63,55.62-18.79,84.36-23.14,10.13-1.59,20.46-2.7,30.73-3.3-2.92-4.5-7.98-7.48-13.74-7.48H84.2c-9.04,0-16.37,7.33-16.37,16.37v17.83c.26-.11,.5-.2,.71-.29Z"/>
    <path class="cls-1" d="M122.2,340.04c3.78-5.37,7.25-10.8,10.11-16.71,2.74-5.64,7.63-14.42,4.75-20.72-2.29-5.01-9.21-5.53-14.01-5.55-8.32-.03-16.52,1.59-24.71,2.87-8.06,1.25-16.13,2.39-24.18,3.68-.47,.07-6.34,.75-6.34,1.3v20.01c0,9.04,7.33,16.37,16.37,16.37h37.1c.3-.42,.61-.83,.9-1.25Z"/>
    <path class="cls-1" d="M155.16,283.79c-6.36,.96-12.8,2.14-19.21,3.5-1.86,.39-1.91,3.05-.06,3.48,1.12,.26,2.18,.56,3.18,.9,17.19,5.76,15.39,23.8,11.46,37.73-1.16,4.02-2.48,7.98-3.9,11.89h23.25c9.04,0,16.37-7.33,16.37-16.37v-44.38c-10.41,.5-20.83,1.69-31.09,3.25Z"/>
  </g>
  <path class="cls-1" d="M276.42,285.26h-71.5c-3.87,0-7-3.14-7-7s3.14-7,7-7h71.5c3.87,0,7,3.14,7,7s-3.14,7-7,7Z"/>
  <path class="cls-1" d="M511.35,340.49h-61.25c-3.87,0-7-3.14-7-7s3.14-7,7-7h61.25c3.76,0,6.82-3.06,6.82-6.82s-3.06-6.82-6.82-6.82h-47.45c-11.47,0-20.8-9.33-20.8-20.8s9.33-20.8,20.8-20.8h57.7c3.87,0,7,3.14,7,7s-3.14,7-7,7h-57.7c-3.75,0-6.79,3.05-6.79,6.79s3.05,6.79,6.79,6.79h47.45c11.48,0,20.82,9.34,20.82,20.82s-9.34,20.82-20.82,20.82Z"/>
  <path class="cls-1" d="M276.42,340.44h-61.54c-9.35,0-16.96-7.61-16.96-16.96v-17.64c0-3.87,3.14-7,7-7h63.03c3.87,0,7,3.14,7,7s-3.14,7-7,7h-56.03v10.64c0,1.63,1.32,2.95,2.95,2.95h61.54c3.87,0,7,3.14,7,7s-3.14,7-7,7Z"/>
  <path class="cls-1" d="M350.41,341.82c-2.22,0-4.32-1.06-5.64-2.85l-35.96-48.75v43.22c0,3.87-3.14,7-7,7s-7-3.14-7-7v-51.4c0-4.9,3.13-9.22,7.78-10.75,4.65-1.53,9.73,.09,12.64,4.03l35.18,47.7,35.18-47.7c2.91-3.94,7.99-5.56,12.64-4.03,4.65,1.53,7.78,5.85,7.78,10.75v51.4c0,3.87-3.14,7-7,7s-7-3.14-7-7v-43.22l-35.96,48.75c-1.32,1.79-3.41,2.85-5.64,2.85Z"/>
  <path class="cls-1" d="M424.43,340.44c-3.87,0-7-3.14-7-7v-55.19c0-3.87,3.14-7,7-7s7,3.14,7,7v55.19c0,3.87-3.14,7-7,7Z"/>
</svg>